first trial
nRows=29
nColumns=38

# SIMM Motion File Header:
name Sujet_03_velo_60.mvnx
datacolumns 38
datarows 29
otherdata 1
range 3.8660 4.3330
endheader
time pelvis_tilt  pelvis_list  pelvis_rotation  pelvis_tx  pelvis_ty  pelvis_tz  hip_flexion_r  hip_adduction_r  hip_rotation_r  knee_angle_r  ankle_angle_r  subtalar_angle_r  mtp_angle_r  hip_flexion_l  hip_adduction_l  hip_rotation_l  knee_angle_l  ankle_angle_l  subtalar_angle_l  mtp_angle_l  lumbar_extension  lumbar_bending  lumbar_rotation  arm_flex_r  arm_add_r  arm_rot_r  elbow_flex_r  pro_sup_r  wrist_flex_r  wrist_dev_r  arm_flex_l  arm_add_l  arm_rot_l  elbow_flex_l  pro_sup_l  wrist_flex_l  wrist_dev_l
3.8660	-17.9229	-0.3088	-87.3272	0.0000	1.2500	-0.0000	81.6253	2.9208	-0.6488	83.7446	4.0456	-3.1962	-0.0000	55.6557	-6.4939	-1.9757	74.8545	-2.2528	2.8660	0.0000	-14.5415	0.0403	0.7694	74.3190	5.2661	15.2949	-3.0048	62.1259	-28.8290	-14.7147	76.6685	-3.9626	18.0854	-0.4016	68.9042	-25.8389	-15.6901	
3.8830	-17.8873	-0.2781	-87.2728	0.0000	1.2500	-0.0000	79.5039	2.9342	-0.8561	80.1495	3.3488	-2.8201	-0.0000	57.1591	-6.8982	-1.2864	78.3343	-1.5553	2.9484	-0.0000	-14.5267	0.0013	0.7566	74.3445	5.1413	15.2862	-3.0236	62.0957	-28.8218	-14.6516	76.6569	-3.9820	18.1097	-0.3635	68.9195	-25.8632	-15.7042	
3.9000	-17.8749	-0.2370	-87.1991	0.0000	1.2500	-0.0000	77.2283	2.9546	-1.1458	76.4496	2.6964	-2.6282	0.0000	58.7763	-7.2609	-0.6587	81.7345	-0.8743	2.9882	0.0000	-14.5014	-0.0418	0.7413	74.3460	5.0186	15.2707	-3.0506	62.0596	-28.8091	-14.5995	76.6280	-3.9539	18.1653	-0.3274	68.9089	-25.8987	-15.7159	
3.9160	-17.8933	-0.1788	-87.1021	0.0000	1.2500	-0.0000	74.7775	3.0028	-1.5878	72.6166	2.2098	-2.8742	-0.0000	60.5145	-7.5934	-0.1074	85.0152	-0.2236	3.0149	0.0000	-14.4627	-0.0924	0.7250	74.3223	4.8972	15.2367	-3.0986	62.0196	-28.7896	-14.5607	76.5771	-3.8649	18.2714	-0.2887	68.8561	-25.9541	-15.7217	
3.9330	-17.9348	-0.1100	-86.9856	0.0000	1.2500	-0.0000	72.1740	3.0747	-2.1134	68.6767	1.7575	-3.2983	0.0000	62.3644	-7.8874	0.3787	88.2083	0.4101	2.9979	-0.0000	-14.4136	-0.1472	0.7063	74.2743	4.7779	15.1959	-3.1549	61.9735	-28.7646	-14.5330	76.5084	-3.7285	18.4090	-0.2517	68.7775	-26.0205	-15.7252	
3.9500	-17.9814	-0.0317	-86.8582	0.0000	1.2500	-0.0000	69.5449	3.1241	-2.5720	64.8459	1.1403	-3.3956	-0.0000	64.2940	-8.1010	0.7207	91.2490	0.9321	2.8806	0.0000	-14.3618	-0.2025	0.6813	74.1937	4.6689	15.1635	-3.1903	61.9228	-28.7346	-14.5214	76.4438	-3.5634	18.5255	-0.2319	68.7231	-26.0811	-15.7284	
3.9660	-18.0314	0.0628	-86.7374	0.0000	1.2500	-0.0000	66.8828	3.1284	-2.9813	61.1148	0.2558	-2.8858	0.0000	66.3127	-8.2480	0.8743	94.1548	1.2710	2.6765	0.0000	-14.3080	-0.2662	0.6531	74.0757	4.5771	15.1350	-3.1923	61.8734	-28.6960	-14.5300	76.3930	-3.3605	18.5993	-0.2466	68.7144	-26.1281	-15.7331	
3.9830	-18.0865	0.1668	-86.6058	0.0000	1.2500	-0.0000	64.1943	3.1019	-3.3303	57.4915	-0.7886	-2.0595	0.0000	68.4065	-8.3308	0.8756	96.8947	1.4992	2.3725	0.0000	-14.2515	-0.3305	0.6188	73.9250	4.4956	15.1152	-3.1735	61.8193	-28.6523	-14.5547	76.3460	-3.1287	18.6519	-0.2789	68.7298	-26.1691	-15.7375	
4.0000	-18.1339	0.2592	-86.4196	0.0000	1.2500	-0.0000	61.6264	3.0301	-3.4309	54.2239	-1.8650	-1.2752	0.0000	70.5077	-8.2904	0.7602	99.3307	1.7377	1.8725	0.0000	-14.1980	-0.3677	0.5654	73.7473	4.4112	15.1336	-3.1423	61.7434	-28.6146	-14.5882	76.2955	-2.9132	18.6954	-0.2927	68.7545	-26.2107	-15.7391	
4.0160	-18.1668	0.3350	-86.1397	0.0000	1.2500	-0.0000	59.1913	2.8527	-3.1800	51.3651	-2.9559	-0.6265	0.0000	72.6169	-8.0760	0.4712	101.4260	1.9477	1.0664	0.0000	-14.1476	-0.3626	0.4817	73.5184	4.3143	15.2316	-3.0949	61.6171	-28.5900	-14.6375	76.2345	-2.7299	18.7357	-0.2711	68.7861	-26.2528	-15.7350	
4.0330	-18.1917	0.3990	-85.8052	0.0000	1.2500	-0.0000	56.8758	2.6009	-2.6933	48.8665	-4.0850	-0.0088	0.0000	74.7300	-7.7478	0.0446	103.2195	2.1728	0.0625	-0.0000	-14.1000	-0.3306	0.3789	73.2629	4.2144	15.3681	-3.0348	61.4690	-28.5713	-14.6956	76.1700	-2.5630	18.7670	-0.2312	68.8272	-26.2954	-15.7281	
4.0500	-18.2156	0.4451	-85.4910	0.0000	1.2500	-0.0000	54.7890	2.3932	-2.1010	46.8255	-5.1784	0.5174	-0.0000	76.7742	-7.4012	-0.3401	104.6910	2.6500	-0.9052	0.0000	-14.0598	-0.2908	0.2778	73.0587	4.1262	15.4492	-2.9818	61.3675	-28.5478	-14.7346	76.1157	-2.4093	18.7843	-0.1879	68.8706	-26.3447	-15.7244	
4.0660	-18.2393	0.4650	-85.2114	0.0000	1.2500	-0.0000	52.9650	2.2748	-1.3471	45.2888	-6.2601	0.9511	-0.0000	78.7538	-7.0348	-0.6509	105.8394	3.5458	-1.7632	-0.0000	-14.0278	-0.2416	0.1824	72.9373	4.0607	15.4239	-2.9425	61.3510	-28.5133	-14.7398	76.0729	-2.2763	18.7651	-0.1427	68.9310	-26.4040	-15.7286	
4.0830	-18.2621	0.4667	-84.9523	0.0000	1.2500	-0.0000	51.3684	2.1928	-0.4733	44.2053	-7.3065	1.3059	-0.0000	80.6655	-6.6429	-0.9174	106.6699	4.6755	-2.5657	0.0000	-14.0031	-0.1845	0.0887	72.8669	4.0070	15.3434	-2.9104	61.3811	-28.4739	-14.7259	76.0405	-2.1565	18.7318	-0.0947	68.9933	-26.4700	-15.7359	
4.1000	-18.2900	0.4686	-84.7454	0.0000	1.2500	-0.0000	50.0044	2.1352	0.2533	43.5298	-8.1652	1.5272	0.0000	82.4272	-6.3033	-1.0363	107.1670	5.7499	-3.2795	0.0000	-13.9885	-0.1428	0.0060	72.8297	3.9473	15.2666	-2.8857	61.4104	-28.4377	-14.7087	76.0289	-2.0244	18.7467	-0.0541	69.0062	-26.5386	-15.7383	
4.1160	-18.3308	0.4777	-84.6043	0.0000	1.2500	-0.0000	48.8715	2.1183	0.7447	43.2413	-8.7853	1.5232	0.0000	84.0412	-6.0386	-0.9240	107.3119	6.7197	-3.9348	0.0000	-13.9857	-0.1260	-0.0627	72.8196	3.8743	15.2207	-2.8718	61.4190	-28.4079	-14.6954	76.0445	-1.8703	18.8611	-0.0236	68.9238	-26.6122	-15.7340	
4.1330	-18.3765	0.4868	-84.5157	0.0000	1.2500	-0.0000	47.9717	2.1400	1.0950	43.3644	-9.2087	1.3709	0.0000	85.5060	-5.8136	-0.6513	107.1195	7.6396	-4.5104	-0.0000	-13.9930	-0.1246	-0.1204	72.8427	3.7952	15.1786	-2.8652	61.4268	-28.3813	-14.6788	76.0806	-1.7039	19.0238	0.0002	68.7923	-26.6885	-15.7248	
4.1500	-18.4084	0.4919	-84.4711	0.0000	1.2500	-0.0000	47.3166	2.1697	1.3080	43.9259	-9.4202	1.2544	-0.0000	86.7347	-5.6211	-0.3400	106.6231	8.3897	-4.9182	0.0000	-14.0083	-0.1332	-0.1670	72.9005	3.7141	15.1178	-2.8559	61.4464	-28.3564	-14.6528	76.1283	-1.5293	19.1437	0.0158	68.6980	-26.7566	-15.7084	
4.1660	-18.4195	0.4977	-84.4862	0.0000	1.2500	-0.0000	46.9123	2.2118	1.3542	44.9586	-9.3668	1.2240	-0.0000	87.7194	-5.4788	0.0425	105.8264	8.9260	-5.1049	-0.0000	-14.0320	-0.1571	-0.1983	73.0057	3.6276	15.0193	-2.8393	61.4862	-28.3315	-14.6076	76.1839	-1.3321	19.1722	0.0185	68.6826	-26.8156	-15.6820	
4.1830	-18.4168	0.4993	-84.5456	0.0000	1.2500	-0.0000	46.7530	2.2668	1.2637	46.4318	-9.1008	1.2175	-0.0000	88.4683	-5.3710	0.4706	104.7230	9.3022	-5.1392	-0.0000	-14.0638	-0.1912	-0.2184	73.1453	3.5390	14.9023	-2.8199	61.5377	-28.3084	-14.5530	76.2513	-1.1267	19.1576	0.0128	68.7044	-26.8663	-15.6482	
4.2000	-18.4024	0.4784	-84.5938	0.0000	1.2500	-0.0000	46.8326	2.2957	1.1288	48.2755	-8.7664	1.2517	0.0000	88.9199	-5.2498	0.7321	103.3368	9.5465	-5.1185	-0.0000	-14.1003	-0.2144	-0.2397	73.2823	3.4623	14.8005	-2.8014	61.5877	-28.2905	-14.5121	76.3330	-0.9589	19.1546	0.0112	68.7245	-26.9010	-15.6129	
4.2160	-18.3745	0.4217	-84.6126	0.0000	1.2500	-0.0000	47.1631	2.2880	0.9584	50.5035	-8.3821	1.3242	0.0000	89.0544	-5.0904	0.7138	101.6730	9.6653	-5.0856	0.0000	-14.1440	-0.2187	-0.2661	73.4151	3.4123	14.7159	-2.7908	61.6390	-28.2790	-14.4948	76.4405	-0.8535	19.1866	0.0186	68.7300	-26.9134	-15.5766	
4.2330	-18.3349	0.3423	-84.6204	0.0000	1.2500	-0.0000	47.7320	2.2513	0.7432	53.1027	-7.9268	1.4326	-0.0000	88.8932	-4.9228	0.5302	99.7355	9.6581	-5.0053	0.0000	-14.1926	-0.2122	-0.2935	73.5452	3.3743	14.6467	-2.7812	61.6888	-28.2727	-14.4912	76.5623	-0.7857	19.2305	0.0301	68.7339	-26.9098	-15.5388	
4.2500	-18.2904	0.2612	-84.6167	0.0000	1.2500	-0.0000	48.4962	2.1738	0.5477	55.9615	-7.4854	1.5989	-0.0000	88.4364	-4.7830	0.3089	97.5478	9.5355	-4.8507	-0.0000	-14.2365	-0.1970	-0.3224	73.6408	3.3175	14.6213	-2.7548	61.7157	-28.2723	-14.4953	76.6665	-0.7271	19.2706	0.0433	68.7358	-26.9020	-15.5036	
4.2660	-18.2381	0.1806	-84.5938	0.0000	1.2500	-0.0000	49.4664	2.0434	0.3957	59.1071	-7.0994	1.8727	-0.0000	87.6649	-4.6841	0.0732	95.0985	9.2803	-4.5629	-0.0000	-14.2742	-0.1713	-0.3563	73.6844	3.2344	14.6596	-2.7170	61.7056	-28.2765	-14.5085	76.7460	-0.6745	19.3022	0.0595	68.7353	-26.8929	-15.4729	
4.2830	-18.1810	0.0982	-84.5593	0.0000	1.2500	-0.0000	50.6314	1.8703	0.2666	62.5110	-6.7273	2.2076	-0.0000	86.5978	-4.6103	-0.1988	92.3988	8.9049	-4.1940	-0.0000	-14.3073	-0.1369	-0.3917	73.6934	3.1328	14.7418	-2.6624	61.6725	-28.2866	-14.5294	76.8080	-0.6314	19.3300	0.0775	68.7327	-26.8795	-15.4449	
4.3000	-18.1352	0.0286	-84.5362	0.0000	1.2500	-0.0000	51.9158	1.6785	0.1582	65.9789	-6.3323	2.4859	0.0000	85.2923	-4.5548	-0.4477	89.5006	8.4600	-3.8770	0.0000	-14.3310	-0.1024	-0.4187	73.6883	3.0047	14.8364	-2.5572	61.6372	-28.3076	-14.5471	76.8416	-0.5798	19.3531	0.0905	68.7282	-26.8650	-15.4183	
4.3160	-18.1049	-0.0164	-84.5217	0.0000	1.2500	-0.0000	53.3000	1.4602	0.0772	69.4844	-5.8838	2.6547	0.0000	83.7458	-4.5197	-0.6272	86.3877	7.9568	-3.6763	-0.0000	-14.3430	-0.0694	-0.4351	73.6760	2.8218	14.9229	-2.3677	61.6204	-28.3478	-14.5552	76.8349	-0.5072	19.3865	0.0953	68.7065	-26.8519	-15.3908	
4.3330	-18.0859	-0.0484	-84.5187	0.0000	1.2500	-0.0000	54.8038	1.2256	0.0195	73.0568	-5.4153	2.7718	0.0000	81.9607	-4.5022	-0.7851	83.0717	7.3831	-3.5206	0.0000	-14.3456	-0.0363	-0.4433	73.6499	2.6124	15.0214	-2.1276	61.6008	-28.3989	-14.5601	76.7999	-0.4261	19.4152	0.0951	68.6828	-26.8376	-15.3647	
